PathFileType	4	(X/Y/Z)	Run_300 02
DataRate	CameraRate	NumFrames	NumMarkers	Units	OrigDataRate	OrigDataStartFrame	OrigNumFrames
100	100	4	42	mm	100	164	128
Frame#	Time	LASI			RASI			LPSI			RPSI			RTH1			RTH2			RTH3			LTH1			LTH2			LTH3			RTB1			RTB2			RTB3			LTB1			LTB2			LTB3			RCAL			RTOE			RMT5			LCAL			LTOE			LMT5			LACR			RACR			CLAV			C7			RUA1			RUA2			RUA3			RLEL			RMEL			LUA1			LUA2			LUA3			LLEL			LMEL			RFAsuperior			RFAradius			RFAulna			LFAsuperior			LFAradius			LFAulna			
		X1	Y1	Z1	X2	Y2	Z2	X3	Y3	Z3	X4	Y4	Z4	X5	Y5	Z5	X6	Y6	Z6	X7	Y7	Z7	X8	Y8	Z8	X9	Y9	Z9	X10	Y10	Z10	X11	Y11	Z11	X12	Y12	Z12	X13	Y13	Z13	X14	Y14	Z14	X15	Y15	Z15	X16	Y16	Z16	X17	Y17	Z17	X18	Y18	Z18	X19	Y19	Z19	X20	Y20	Z20	X21	Y21	Z21	X22	Y22	Z22	X23	Y23	Z23	X24	Y24	Z24	X25	Y25	Z25	X26	Y26	Z26	X27	Y27	Z27	X28	Y28	Z28	X29	Y29	Z29	X30	Y30	Z30	X31	Y31	Z31	X32	Y32	Z32	X33	Y33	Z33	X34	Y34	Z34	X35	Y35	Z35	X36	Y36	Z36	X37	Y37	Z37	X38	Y38	Z38	X39	Y39	Z39	X40	Y40	Z40	X41	Y41	Z41	X42	Y42	Z42	

153	1.95	812.205635	994.004225	-474.218531	818.282302	997.060578	-200.875936	643.359745	1011.307507	-392.228104	641.511487	1016.266162	-291.943282	717.313207	812.669832	-164.576306	790.984913	705.3751130000001	-184.004955	708.93398	588.582196	-212.005009	778.226615	791.491401	-500.924359	901.291525	698.015689	-495.283279	895.2612370000001	579.476911	-470.952394	708.801585	345.093087	-300.50237	662.169028	300.562685	-238.293574	622.8514290000001	201.466786	-304.049298	863.9415299999999	395.987099	-397.16193	767.543946	385.356207	-462.537372	728.08633	316.64023	-403.17391	448.166974	118.101782	-313.219886	667.913202	61.867898	-316.874069	611.086786	58.12449	-228.049195	551.145954	342.846392	-395.389048	644.517411	131.181679	-377.087784	602.21737	168.120329	-470.661366	804.792299	1462.589982	-516.097352	822.229904	1480.157673	-180.832366	865.3008589999999	1407.034904	-318.375987	745.420796	1493.341059	-341.98016	777.56767	1409.597435	-89.820892	708.424091	1334.527653	-104.841739	740.906686	1291.92246	-50.533671	710.307452	1193.640789	-6.608542	686.282228	1169.543772	-79.29966400000001	735.118419	1386.167414	-584.211923	667.625468	1320.232321	-539.31934	649.1393	1265.132851	-594.343086	624.598422	1185.586415	-626.653984	613.894407	1175.167577	-551.788171	812.193523	1154.331074	-4.488534	951.303767	1099.814485	-47.529029	917.028404	1039.93105	-27.857929	714.371622	1112.211031	-632.6419979999999	828.286815	1007.404636	-569.897861	783.16434	969.776125	-611.805791	
154	1.96	814.6225470000001	1000.089611	-471.82802	820.218751	998.80475	-199.875979	644.398711	1017.234135	-391.476652	642.991453	1020.419453	-291.185055	711.251485	816.795512	-163.0481	780.086384	707.543061	-184.704879	692.061092	593.983055	-213.498744	785.628653	799.932508	-504.048601	908.486573	708.87919	-494.402215	905.655926	589.844345	-471.721323	684.897949	348.495299	-299.693316	636.852503	304.936621	-237.704038	594.825286	206.849866	-303.572834	882.888944	399.714566	-398.040059	787.3490839999999	384.923505	-463.555712	752.322861	311.534081	-401.939288	421.450814	126.421904	-312.169503	639.111268	63.121555	-315.869263	582.5465390000001	58.194322	-228.642003	572.6953140000001	321.837098	-394.199566	687.799186	122.586078	-375.365244	641.435197	152.403245	-468.553191	802.631801	1468.21853	-516.871363	823.7607	1486.397702	-182.938621	866.122239	1412.849865	-320.499016	745.660856	1497.906555	-343.058669	780.34266	1416.329386	-90.96338299999999	711.290825	1341.400648	-103.203542	746.2375520000001	1298.400356	-50.050193	716.467369	1200.243959	-5.601259	691.089024	1175.856497	-78.06643699999999	730.414098	1394.494418	-584.888878	663.484004	1330.450182	-538.3388619999999	641.443075	1275.847282	-593.8489489999999	613.284642	1197.526078	-625.086722	605.335827	1187.311514	-549.77466	819.025707	1163.283952	-5.146562	958.490318	1111.31431	-50.589838	925.724012	1050.82463	-29.899374	700.880896	1123.658031	-632.598701	815.055372	1017.798162	-573.855756	768.677986	979.787476	-613.586182	
155	1.97	816.537582	1006.731561	-469.999227	822.215451	1001.118634	-199.472375	645.601763	1023.931045	-390.647854	645.422387	1025.924948	-290.393916	706.052939	821.347426	-161.639614	769.86882	710.604515	-185.357623	676.272202	600.811631	-214.255086	792.835357	808.893374	-507.503011	915.150571	720.035395	-493.273235	915.239098	600.655218	-473.401791	661.843518	353.776294	-298.254665	612.542939	311.138841	-236.426933	567.791973	213.920777	-302.490653	900.6414590000001	403.279872	-398.944576	806.833569	383.467904	-464.535034	776.812061	306.20899	-400.510824	396.573379	136.591436	-311.147578	610.83277	63.889674	-315.13276	554.1681610000001	59.052648	-228.815552	596.3661949999999	299.186587	-392.753146	733.606753	116.260036	-375.590494	682.350624	137.363419	-466.944009	800.618096	1474.354646	-517.59836	825.384339	1493.024159	-185.070981	867.017239	1419.240421	-322.75661	746.09671	1502.82776	-344.16314	782.96723	1423.48573	-92.245137	714.022488	1349.015804	-102.080674	751.106658	1305.460618	-49.867106	721.811204	1207.46882	-5.012037	695.002621	1182.947358	-77.23573500000001	726.554141	1403.506107	-585.76891	660.343512	1341.324409	-538.2072439999999	635.180302	1287.035545	-594.300756	603.657147	1209.852578	-623.8336859999999	597.441378	1200.335145	-548.226373	824.818663	1172.578928	-6.014701	964.7671810000001	1123.087503	-53.736317	933.232623	1062.086717	-32.081716	689.13044	1135.851321	-631.863751	803.265453	1028.944867	-576.4529690000001	756.066645	990.7150349999999	-614.828166	
156	1.98	818.167363	1013.706538	-468.763259	823.7615050000001	1003.979851	-199.85987	647.048512	1031.106891	-389.838759	648.436921	1032.06926	-289.786709	701.638228	826.332194	-161.036653	760.658428	714.278546	-185.927127	661.769765	608.722674	-213.863402	799.218543	818.094107	-510.5806	920.952666	731.064564	-492.078693	923.498836	611.418224	-474.961698	639.725247	360.617674	-296.066032	589.482312	318.953337	-234.382803	542.596827	222.125991	-300.806691	916.950828	406.920744	-399.423578	825.77739	379.440745	-463.330723	801.497534	300.580338	-398.794072	373.580309	148.377336	-310.23474	583.074643	63.702826	-314.762628	526.219387	60.506641	-228.675206	622.102878	275.5444	-391.071009	779.435049	110.338476	-375.292464	724.095326	123.141399	-465.276499	798.966535	1480.641096	-518.380549	827.007988	1499.799316	-187.183398	867.72002	1426.021921	-325.110486	746.483218	1507.978951	-345.19905	785.657675	1430.774437	-93.592444	716.627311	1357.084106	-101.269684	755.4327970000001	1312.824006	-49.981333	726.42683	1215.031295	-4.705731	698.389269	1190.478854	-76.739081	723.4730029999999	1412.914618	-586.604062	657.773102	1352.692204	-538.400955	629.734086	1298.578563	-594.890342	595.229841	1222.273904	-622.519762	590.027685	1213.787943	-546.744744	829.725916	1181.931087	-7.047719	970.181152	1134.680865	-56.865805	939.751252	1073.261352	-34.465453	678.778891	1148.06209	-630.7576	792.896061	1040.192725	-578.011961	744.8896559999999	1001.963813	-615.589678	
